<?xml version="1.0" encoding="utf-8"?>
<svg viewBox="0 0 500 500" xmlns="http://www.w3.org/2000/svg">
  <path d="M 167.221 355.463 C 191.937 374.435 221.093 383.603 250.016 383.58 L 250.016 459.406 C 204.965 459.441 159.549 445.161 121.05 415.609 C 113.63 409.913 106.692 403.823 100.242 397.389 L 153.863 343.768 C 158.004 347.897 162.458 351.807 167.221 355.463 Z M 385.918 246.958 L 385.968 246.958 C 385.775 211.979 372.143 177.394 346.158 151.473 L 399.779 97.852 C 440.346 138.32 461.587 192.346 461.797 246.958 L 461.819 246.958 L 461.819 247.615 L 385.918 247.615 Z M 332.791 139.769 C 308.08 120.801 278.932 111.634 250.016 111.652 L 250.016 35.823 C 295.06 35.793 340.466 50.073 378.958 79.62 C 386.383 85.319 393.326 91.414 399.779 97.852 L 346.158 151.473 C 342.015 147.34 337.558 143.428 332.791 139.769 Z M 250.016 35.823 L 250.016 111.652 C 214.81 111.675 179.95 125.315 153.864 151.463 C 149.731 155.607 145.818 160.064 142.159 164.831 C 123.188 189.544 114.02 218.696 114.041 247.615 C 114.066 282.822 127.709 317.683 153.863 343.768 L 100.242 397.389 C 59.504 356.757 38.253 302.456 38.213 247.615 C 38.181 202.568 52.461 157.158 82.011 118.662 C 87.71 111.237 93.805 104.295 100.242 97.841 C 140.875 57.108 195.177 35.86 250.016 35.823 Z M 357.853 330.401 C 375.977 306.789 385.154 279.126 385.918 251.485 L 385.918 247.615 L 461.819 247.615 L 461.819 423.655 L 461.797 423.655 C 461.521 432.955 457.898 441.966 451.116 448.715 C 450.16 449.666 449.142 450.572 448.061 451.427 C 431.919 464.206 408.004 460.887 394.645 444.013 C 389.79 437.88 386.998 430.798 386.186 423.655 L 385.918 423.655 L 385.918 410.089 C 347.22 442.524 298.832 459.368 250.016 459.406 L 250.016 383.58 C 285.22 383.552 320.077 369.908 346.159 343.758 C 350.288 339.617 354.197 335.164 357.853 330.401 Z" style="fill: rgb(170, 170, 170);"/>
  <path d="M 167.221 355.463 C 191.937 374.435 221.093 383.603 250.016 383.58 L 250.016 459.406 C 204.965 459.441 159.549 445.161 121.05 415.609 C 113.63 409.913 106.692 403.823 100.242 397.389 L 153.863 343.768 C 158.004 347.897 162.458 351.807 167.221 355.463 Z" style="fill: rgb(170, 170, 170);"/>
  <path d="M 385.918 246.958 L 385.968 246.958 C 385.775 211.979 372.143 177.394 346.158 151.473 L 399.779 97.852 C 440.346 138.32 461.587 192.346 461.797 246.958 L 461.819 246.958 L 461.819 247.615 L 385.918 247.615 Z" style="fill: rgb(211, 94, 190);"/>
  <path d="M 332.791 139.769 C 308.08 120.801 278.932 111.634 250.016 111.652 L 250.016 35.823 C 295.06 35.793 340.466 50.073 378.958 79.62 C 386.383 85.319 393.326 91.414 399.779 97.852 L 346.158 151.473 C 342.015 147.34 337.558 143.428 332.791 139.769 Z" style="fill: rgb(253, 90, 62);"/>
  <path d="M 250.016 35.823 L 250.016 111.652 C 214.81 111.675 179.95 125.315 153.864 151.463 C 149.731 155.607 145.818 160.064 142.159 164.831 C 123.188 189.544 114.02 218.696 114.041 247.615 C 114.066 282.822 127.709 317.683 153.863 343.768 L 100.242 397.389 C 59.504 356.757 38.253 302.456 38.213 247.615 C 38.181 202.568 52.461 157.158 82.011 118.662 C 87.71 111.237 93.805 104.295 100.242 97.841 C 140.875 57.108 195.177 35.86 250.016 35.823 Z" style="fill: rgb(151, 204, 100);"/>
  <path d="M 357.853 330.401 C 375.977 306.789 385.154 279.126 385.918 251.485 L 385.918 247.615 L 461.819 247.615 L 461.819 423.655 L 461.797 423.655 C 461.521 432.955 457.898 441.966 451.116 448.715 C 450.16 449.666 449.142 450.572 448.061 451.427 C 431.919 464.206 408.004 460.887 394.645 444.013 C 389.79 437.88 386.998 430.798 386.186 423.655 L 385.918 423.655 L 385.918 410.089 C 347.22 442.524 298.832 459.368 250.016 459.406 L 250.016 383.58 C 285.22 383.552 320.077 369.908 346.159 343.758 C 350.288 339.617 354.197 335.164 357.853 330.401 Z" style="fill: rgb(255, 208, 80);"/>
</svg>